<?xml version="1.0" encoding="utf-8"?>
<!-- Generator: Adobe Illustrator 26.1.0, SVG Export Plug-In . SVG Version: 6.00 Build 0)  -->
<svg version="1.1" id="Layer_1" xmlns="http://www.w3.org/2000/svg" xmlns:xlink="http://www.w3.org/1999/xlink" x="0px" y="0px"
	 viewBox="0 0 72.8 171.6" style="enable-background:new 0 0 72.8 171.6;" xml:space="preserve">
	<style type="text/css">.st0{fill:#333;}</style>
	<g>
		<polygon class="st0" points="9.4,29.6 9.4,86.4 13.6,88.5 13.6,31.7 	"/>
		<path class="st0" d="M58.8,56.3"/>
		<g>
			<g>
				<path class="st0" d="M29.9,150.3L29.9,150.3L29.9,150.3L29.9,150.3z"/>
				<path class="st0" d="M23.8,138.4V108c0-5.5-2.9-10.6-7.7-13.4L4.2,87.7l-4.2-1l11.9,6.9c4.8,2.8,7.7,6.8,7.7,12.3v30.4
				c0,6.6,4.3,12.1,10.3,14C26.2,147.6,23.8,143.3,23.8,138.4z"/>
			</g>
			<path class="st0" d="M58.8,56.3L52.5,60c-2.2,1.2-3.5,3.6-3.5,6.1V136c0,7-4.7,13.2-11.6,14.7c-2.7,0.6-5.2,0.4-7.5-0.3l0,0
			c2.5,1.8,5.7,2.9,9.1,2.8c7.8-0.3,14.2-7.3,14.2-15.1v-71c0-1.8,1-3.5,2.6-4.5l7.2-4.2L58.8,56.3z"/>
		</g>
		<path class="st0" d="M39.9,142.2c-3.8-2.8-6.3-7.4-6.3-12.5V86.4c0-3.3,1.8-6.4,4.6-8l5.2-3l-4.2-2.1l-4.1,2.4
		c-3.5,2-5.7,5.8-5.7,9.9v42.1C29.4,134.3,33.7,140.3,39.9,142.2L39.9,142.2z"/>
		<path class="st0" d="M39.9,142.2L39.9,142.2L39.9,142.2z"/>
		<polygon class="st0" points="9.4,96.6 13.6,98.7 13.6,142 9.4,139.9 	"/>
		<path class="st0" d="M54.3,4.3L54.3,4.3L54.3,4.3L54.3,4.3z"/>
		<path class="st0" d="M43.2,2.1c3.9,0,7.7,0.8,11.1,2.2l0,0C49.8,1.6,44.6,0,39,0C22.7,0,9.4,13.3,9.4,29.6l4.2,2.1
		C13.6,15.4,26.8,2.1,43.2,2.1z"/>
		<g>
			<path class="st0" d="M13.6,142l-4.2-2.1c0,12.4,7.6,23,18.5,27.4C19.3,162.1,13.6,152.7,13.6,142z"/>
			<path class="st0" d="M27.9,167.3L27.9,167.3L27.9,167.3z"/>
		</g>
		<polygon class="st0" points="68.6,29.6 72.8,31.7 72.8,142 68.6,139.9 	"/>
		<path class="st0" d="M54.3,4.3c8.6,5.2,14.3,14.6,14.3,25.3l4.2,2.1C72.8,19.3,65.1,8.7,54.3,4.3z"/>
		<path class="st0" d="M72.8,142l-4.2-2.1c0,16.4-13.3,29.6-29.6,29.6c-3.9,0-7.7-0.8-11.1-2.2l0,0c4.5,2.7,9.7,4.3,15.3,4.3
		C59.6,171.6,72.8,158.3,72.8,142z"/>
		<path class="st0" d="M71.1,21.7l-1.6-3.6l0,0l-5.8,3.4c-3,1.7-4.9,4.9-4.9,8.4v98.3c0,8.4-7.1,15.2-15.7,14.7
		c-1.1-0.1-2.2-0.3-3.2-0.6c2.1,1.5,4.6,2.5,7.4,2.7c8.6,0.6,15.7-6.2,15.7-14.7V30.6c0-2.6,1.4-5.1,3.7-6.4L71.1,21.7L71.1,21.7z"
		/>
	</g>
</svg>
